<svg id="Layer_1" data-name="Layer 1" xmlns="http://www.w3.org/2000/svg" viewBox="0 0 123.1 122.88"><title>motorola</title><path d="M53.55.35A63.75,63.75,0,0,0,31.29,7.72,61.73,61.73,0,0,0,.57,51.64,91.57,91.57,0,0,0,.29,69,61.27,61.27,0,0,0,5.94,88.12a57.19,57.19,0,0,0,11.15,16,61.22,61.22,0,0,0,29.47,17.07c5.78,1.4,8,1.66,14.92,1.66s9.15-.26,14.91-1.66A63.89,63.89,0,0,0,101,108.84a78.75,78.75,0,0,0,9.75-10.26A61.7,61.7,0,0,0,95.65,10.17,60.88,60.88,0,0,0,69,.32a89.79,89.79,0,0,0-15.47,0ZM52.29,46.06c4.91,16.3,9.06,29.62,9.19,29.62s4.27-13.32,9.18-29.62,9-29.75,9.08-29.93,5.53,17.14,23.2,75.11l.34,1.07h-2c-1.41,0-2.07-.1-2.15-.33s-.56-2.1-1.15-4.27C95.19,77.55,91.48,69.8,87.72,66.45a18.17,18.17,0,0,0-3.32-2.23c-1.9-.92-2-.94-5-.94s-3.12,0-4.76.89A23.05,23.05,0,0,0,68,70.7a94.43,94.43,0,0,0-5.35,9.9c-1,2.17-1.15,2.4-1.35,1.91a114.45,114.45,0,0,0-5.5-10.66c-2.59-3.89-5.27-6.55-8-7.88-1.28-.62-1.66-.69-4.22-.67a9.94,9.94,0,0,0-7.21,2.3C31.6,69,27.71,77.17,24,91.47l-.28,1.1h-2c-1.56,0-2-.08-2-.34s5.35-17.44,11.72-38.37S43.11,16,43.19,16.13s4.19,13.66,9.1,29.93Z"/></svg>